<svg width="64" height="64" viewBox="0 0 64 64" fill="none" xmlns="http://www.w3.org/2000/svg">
<path fill-rule="evenodd" clip-rule="evenodd" d="M32.3118 7.9924C33.6827 6.62156 33.6827 4.39898 32.3118 3.02813C30.941 1.65729 28.7184 1.65729 27.3476 3.02813L1.28517 29.0905C-0.428389 30.8041 -0.428389 33.5823 1.28517 35.2959L27.3476 61.3583C28.7184 62.7291 30.941 62.7291 32.3118 61.3583C33.6827 59.9874 33.6827 57.7648 32.3118 56.394L9.3521 33.4343C8.66668 32.7488 8.66668 31.6376 9.3521 30.9521L32.3118 7.9924Z" fill="#D9D9D9"/>
<path d="M7.83574 32.1384C7.83574 30.1997 9.40734 28.6281 11.346 28.6281H61.3673C62.8213 28.6281 64 29.8068 64 31.2608V33.016C64 34.47 62.8213 35.6487 61.3673 35.6487H11.346C9.40734 35.6487 7.83574 34.0771 7.83574 32.1384Z" fill="#D9D9D9"/>
</svg>
