<svg width="128" height="128" viewBox="0 0 128 128" fill="none" xmlns="http://www.w3.org/2000/svg">
<rect x="15" y="16" width="72" height="96" rx="5" fill="#DADADF"/>
<path d="M49.7 58C46.3863 58 43.7 60.6863 43.7 64C43.7 67.3137 46.3863 70 49.7 70V58ZM49.7 70C49.7016 70 49.7032 70 49.705 70C49.7067 70 49.7085 70 49.7105 70C49.7124 70 49.7144 70 49.7165 70C49.7187 70 49.7209 70 49.7232 70C49.7255 70 49.7278 70 49.7303 70C49.7328 70 49.7354 70 49.738 70C49.7407 70 49.7434 70 49.7463 70C49.7491 70 49.7521 70 49.7551 70C49.7581 70 49.7612 70 49.7644 70C49.7676 70 49.7709 70 49.7743 70C49.7777 70 49.7811 70 49.7847 70C49.7883 70 49.7919 70 49.7956 70C49.7994 70 49.8032 70 49.8071 70C49.811 70 49.815 70 49.8191 70C49.8232 70 49.8274 70 49.8317 70C49.8359 70 49.8403 70 49.8447 70C49.8492 70 49.8537 70 49.8583 70C49.863 70 49.8677 70 49.8725 70C49.8773 70 49.8821 70 49.8871 70C49.8921 70 49.8971 70 49.9023 70C49.9074 70 49.9127 70 49.918 70C49.9233 70 49.9287 70 49.9342 70C49.9397 70 49.9452 70 49.9509 70C49.9566 70 49.9623 70 49.9681 70C49.974 70 49.9799 70 49.9859 70C49.9919 70 49.998 70 50.0042 70C50.0103 70 50.0166 70 50.0229 70C50.0293 70 50.0357 70 50.0422 70C50.0487 70 50.0553 70 50.062 70C50.0687 70 50.0754 70 50.0823 70C50.0891 70 50.0961 70 50.1031 70C50.1101 70 50.1172 70 50.1244 70C50.1316 70 50.1388 70 50.1462 70C50.1535 70 50.161 70 50.1685 70C50.176 70 50.1836 70 50.1913 70C50.199 70 50.2067 70 50.2146 70C50.2224 70 50.2303 70 50.2384 70C50.2464 70 50.2545 70 50.2626 70C50.2708 70 50.2791 70 50.2874 70C50.2957 70 50.3041 70 50.3126 70C50.3211 70 50.3297 70 50.3384 70C50.347 70 50.3558 70 50.3646 70C50.3734 70 50.3823 70 50.3913 70C50.4003 70 50.4093 70 50.4185 70C50.4276 70 50.4369 70 50.4462 70C50.4555 70 50.4648 70 50.4743 70C50.4838 70 50.4933 70 50.5029 70C50.5125 70 50.5222 70 50.532 70C50.5418 70 50.5517 70 50.5616 70C50.5715 70 50.5815 70 50.5916 70C50.6017 70 50.6119 70 50.6221 70C50.6324 70 50.6427 70 50.6531 70C50.6635 70 50.674 70 50.6846 70C50.6951 70 50.7058 70 50.7165 70C50.7272 70 50.738 70 50.7488 70C50.7597 70 50.7707 70 50.7817 70C50.7927 70 50.8038 70 50.815 70C50.8261 70 50.8374 70 50.8487 70C50.86 70 50.8714 70 50.8829 70C50.8944 70 50.906 70 50.9176 70C50.9292 70 50.9409 70 50.9527 70C50.9645 70 50.9763 70 50.9883 70C51.0002 70 51.0122 70 51.0243 70C51.0364 70 51.0485 70 51.0607 70C51.073 70 51.0853 70 51.0976 70C51.11 70 51.1225 70 51.135 70C51.1475 70 51.1601 70 51.1728 70C51.1855 70 51.1982 70 51.211 70C51.2239 70 51.2367 70 51.2497 70C51.2627 70 51.2757 70 51.2888 70C51.3019 70 51.3151 70 51.3284 70C51.3416 70 51.355 70 51.3684 70C51.3818 70 51.3952 70 51.4088 70C51.4223 70 51.4359 70 51.4496 70C51.4633 70 51.4771 70 51.4909 70C51.5047 70 51.5186 70 51.5326 70C51.5466 70 51.5606 70 51.5747 70C51.5888 70 51.603 70 51.6173 70C51.6315 70 51.6459 70 51.6602 70C51.6746 70 51.6891 70 51.7036 70C51.7182 70 51.7328 70 51.7475 70C51.7621 70 51.7769 70 51.7917 70C51.8065 70 51.8214 70 51.8363 70C51.8513 70 51.8663 70 51.8814 70C51.8965 70 51.9117 70 51.9269 70C51.9421 70 51.9574 70 51.9728 70C51.9881 70 52.0036 70 52.0191 70C52.0346 70 52.0501 70 52.0658 70C52.0814 70 52.0971 70 52.1129 70C52.1286 70 52.1445 70 52.1604 70C52.1763 70 52.1923 70 52.2083 70C52.2243 70 52.2404 70 52.2566 70C52.2728 70 52.289 70 52.3053 70C52.3216 70 52.338 70 52.3544 70C52.3709 70 52.3874 70 52.4039 70C52.4205 70 52.4371 70 52.4538 70C52.4705 70 52.4873 70 52.5041 70C52.521 70 52.5378 70 52.5548 70C52.5718 70 52.5888 70 52.6059 70C52.623 70 52.6401 70 52.6573 70C52.6745 70 52.6918 70 52.7092 70C52.7265 70 52.7439 70 52.7614 70C52.7789 70 52.7964 70 52.814 70C52.8316 70 52.8493 70 52.867 70C52.8847 70 52.9025 70 52.9204 70C52.9382 70 52.9561 70 52.9741 70C52.9921 70 53.0101 70 53.0282 70C53.0463 70 53.0645 70 53.0827 70C53.1009 70 53.1192 70 53.1376 70C53.1559 70 53.1743 70 53.1928 70C53.2113 70 53.2298 70 53.2484 70C53.267 70 53.2857 70 53.3044 70C53.3231 70 53.3419 70 53.3607 70C53.3796 70 53.3985 70 53.4174 70C53.4364 70 53.4554 70 53.4745 70C53.4936 70 53.5127 70 53.5319 70C53.5511 70 53.5704 70 53.5897 70C53.609 70 53.6284 70 53.6478 70C53.6673 70 53.6868 70 53.7063 70C53.7259 70 53.7455 70 53.7652 70C53.7848 70 53.8046 70 53.8244 70C53.8441 70 53.864 70 53.8839 70C53.9038 70 53.9238 70 53.9438 70C53.9638 70 53.9839 70 54.004 70C54.0242 70 54.0444 70 54.0646 70C54.0849 70 54.1052 70 54.1256 70C54.1459 70 54.1663 70 54.1868 70C54.2073 70 54.2278 70 54.2484 70C54.269 70 54.2897 70 54.3104 70C54.3311 70 54.3519 70 54.3727 70C54.3935 70 54.4144 70 54.4353 70C54.4562 70 54.4772 70 54.4982 70C54.5193 70 54.5404 70 54.5615 70C54.5827 70 54.6039 70 54.6251 70C54.6464 70 54.6677 70 54.6891 70C54.7105 70 54.7319 70 54.7534 70C54.7748 70 54.7964 70 54.8179 70C54.8395 70 54.8612 70 54.8829 70C54.9046 70 54.9263 70 54.9481 70C54.9699 70 54.9918 70 55.0137 70C55.0356 70 55.0575 70 55.0795 70C55.1015 70 55.1236 70 55.1457 70C55.1678 70 55.19 70 55.2122 70C55.2344 70 55.2567 70 55.279 70C55.3014 70 55.3237 70 55.3462 70C55.3686 70 55.3911 70 55.4136 70C55.4361 70 55.4587 70 55.4814 70C55.504 70 55.5267 70 55.5494 70C55.5722 70 55.5949 70 55.6178 70C55.6406 70 55.6635 70 55.6864 70C55.7094 70 55.7324 70 55.7554 70C55.7784 70 55.8015 70 55.8247 70C55.8478 70 55.871 70 55.8942 70C55.9175 70 55.9407 70 55.9641 70C55.9874 70 56.0108 70 56.0342 70C56.0577 70 56.0811 70 56.1047 70C56.1282 70 56.1518 70 56.1754 70C56.199 70 56.2227 70 56.2464 70C56.2701 70 56.2939 70 56.3177 70C56.3416 70 56.3654 70 56.3893 70C56.4132 70 56.4372 70 56.4612 70C56.4852 70 56.5093 70 56.5334 70C56.5575 70 56.5816 70 56.6058 70C56.63 70 56.6543 70 56.6785 70C56.7028 70 56.7272 70 56.7515 70C56.7759 70 56.8003 70 56.8248 70C56.8493 70 56.8738 70 56.8984 70C56.9229 70 56.9475 70 56.9722 70C56.9968 70 57.0215 70 57.0463 70C57.071 70 57.0958 70 57.1206 70C57.1455 70 57.1704 70 57.1953 70C57.2202 70 57.2452 70 57.2702 70C57.2952 70 57.3202 70 57.3453 70C57.3704 70 57.3956 70 57.4208 70C57.4459 70 57.4712 70 57.4964 70C57.5217 70 57.547 70 57.5724 70C57.5977 70 57.6231 70 57.6486 70C57.674 70 57.6995 70 57.725 70C57.7506 70 57.7761 70 57.8017 70C57.8273 70 57.853 70 57.8787 70C57.9044 70 57.9301 70 57.9559 70C57.9817 70 58.0075 70 58.0334 70C58.0592 70 58.0851 70 58.1111 70C58.137 70 58.163 70 58.189 70C58.2151 70 58.2411 70 58.2672 70C58.2933 70 58.3195 70 58.3457 70C58.3719 70 58.3981 70 58.4243 70C58.4506 70 58.4769 70 58.5033 70C58.5296 70 58.556 70 58.5824 70C58.6088 70 58.6353 70 58.6618 70C58.6883 70 58.7148 70 58.7414 70C58.768 70 58.7946 70 58.8213 70C58.8479 70 58.8746 70 58.9014 70C58.9281 70 58.9549 70 58.9817 70C59.0085 70 59.0353 70 59.0622 70C59.0891 70 59.116 70 59.143 70C59.17 70 59.197 70 59.224 70C59.251 70 59.2781 70 59.3052 70C59.3323 70 59.3594 70 59.3866 70C59.4138 70 59.441 70 59.4683 70C59.4955 70 59.5228 70 59.5501 70C59.5775 70 59.6048 70 59.6322 70C59.6596 70 59.6871 70 59.7145 70C59.742 70 59.7695 70 59.797 70C59.8246 70 59.8521 70 59.8798 70C59.9074 70 59.935 70 59.9627 70C59.9904 70 60.0181 70 60.0458 70C60.0736 70 60.1013 70 60.1292 70C60.157 70 60.1848 70 60.2127 70C60.2406 70 60.2685 70 60.2964 70C60.3244 70 60.3524 70 60.3804 70C60.4084 70 60.4364 70 60.4645 70C60.4926 70 60.5207 70 60.5489 70C60.577 70 60.6052 70 60.6334 70C60.6616 70 60.6899 70 60.7181 70C60.7464 70 60.7747 70 60.803 70C60.8314 70 60.8598 70 60.8882 70C60.9166 70 60.945 70 60.9734 70C61.0019 70 61.0304 70 61.0589 70C61.0875 70 61.116 70 61.1446 70C61.1732 70 61.2018 70 61.2304 70C61.2591 70 61.2878 70 61.3165 70C61.3452 70 61.3739 70 61.4027 70C61.4315 70 61.4603 70 61.4891 70C61.5179 70 61.5468 70 61.5756 70C61.6045 70 61.6334 70 61.6624 70C61.6913 70 61.7203 70 61.7493 70C61.7783 70 61.8073 70 61.8364 70C61.8654 70 61.8945 70 61.9236 70C61.9528 70 61.9819 70 62.0111 70C62.0402 70 62.0694 70 62.0987 70C62.1279 70 62.1571 70 62.1864 70C62.2157 70 62.245 70 62.2743 70C62.3037 70 62.333 70 62.3624 70C62.3918 70 62.4212 70 62.4506 70C62.4801 70 62.5095 70 62.539 70C62.5685 70 62.598 70 62.6276 70C62.6571 70 62.6867 70 62.7163 70C62.7459 70 62.7755 70 62.8052 70C62.8348 70 62.8645 70 62.8942 70C62.9239 70 62.9536 70 62.9833 70C63.0131 70 63.0428 70 63.0726 70C63.1024 70 63.1322 70 63.1621 70C63.1919 70 63.2218 70 63.2517 70C63.2816 70 63.3115 70 63.3414 70C63.3714 70 63.4013 70 63.4313 70C63.4613 70 63.4913 70 63.5213 70C63.5514 70 63.5814 70 63.6115 70C63.6416 70 63.6717 70 63.7018 70C63.7319 70 63.762 70 63.7922 70C63.8224 70 63.8526 70 63.8828 70C63.913 70 63.9432 70 63.9735 70C64.0037 70 64.034 70 64.0643 70C64.0946 70 64.1249 70 64.1552 70C64.1856 70 64.2159 70 64.2463 70C64.2767 70 64.3071 70 64.3375 70C64.3679 70 64.3984 70 64.4288 70C64.4593 70 64.4898 70 64.5203 70C64.5508 70 64.5813 70 64.6118 70C64.6424 70 64.6729 70 64.7035 70C64.7341 70 64.7647 70 64.7953 70C64.8259 70 64.8565 70 64.8872 70C64.9179 70 64.9485 70 64.9792 70C65.0099 70 65.0406 70 65.0713 70C65.1021 70 65.1328 70 65.1636 70C65.1944 70 65.2251 70 65.2559 70C65.2867 70 65.3176 70 65.3484 70C65.3792 70 65.4101 70 65.4409 70C65.4718 70 65.5027 70 65.5336 70C65.5645 70 65.5954 70 65.6264 70C65.6573 70 65.6882 70 65.7192 70C65.7502 70 65.7812 70 65.8122 70C65.8432 70 65.8742 70 65.9052 70C65.9363 70 65.9673 70 65.9984 70C66.0294 70 66.0605 70 66.0916 70C66.1227 70 66.1538 70 66.1849 70C66.2161 70 66.2472 70 66.2783 70C66.3095 70 66.3407 70 66.3719 70C66.403 70 66.4342 70 66.4654 70C66.4966 70 66.5279 70 66.5591 70C66.5903 70 66.6216 70 66.6529 70C66.6841 70 66.7154 70 66.7467 70C66.778 70 66.8093 70 66.8406 70C66.8719 70 66.9033 70 66.9346 70C66.9659 70 66.9973 70 67.0287 70C67.06 70 67.0914 70 67.1228 70C67.1542 70 67.1856 70 67.217 70C67.2484 70 67.2799 70 67.3113 70C67.3427 70 67.3742 70 67.4056 70C67.4371 70 67.4686 70 67.5001 70C67.5315 70 67.563 70 67.5945 70C67.626 70 67.6576 70 67.6891 70C67.7206 70 67.7521 70 67.7837 70C67.8152 70 67.8468 70 67.8784 70C67.9099 70 67.9415 70 67.9731 70C68.0047 70 68.0363 70 68.0679 70C68.0995 70 68.1311 70 68.1627 70C68.1943 70 68.226 70 68.2576 70C68.2892 70 68.3209 70 68.3525 70C68.3842 70 68.4159 70 68.4475 70C68.4792 70 68.5109 70 68.5426 70C68.5743 70 68.606 70 68.6377 70C68.6694 70 68.7011 70 68.7328 70C68.7645 70 68.7962 70 68.828 70C68.8597 70 68.8914 70 68.9232 70C68.9549 70 68.9867 70 69.0184 70C69.0502 70 69.082 70 69.1137 70C69.1455 70 69.1773 70 69.2091 70C69.2408 70 69.2726 70 69.3044 70C69.3362 70 69.368 70 69.3998 70C69.4316 70 69.4634 70 69.4953 70C69.5271 70 69.5589 70 69.5907 70C69.6225 70 69.6544 70 69.6862 70C69.718 70 69.7499 70 69.7817 70C69.8136 70 69.8454 70 69.8773 70C69.9091 70 69.941 70 69.9728 70C70.0047 70 70.0365 70 70.0684 70C70.1003 70 70.1321 70 70.164 70C70.1959 70 70.2278 70 70.2596 70C70.2915 70 70.3234 70 70.3553 70C70.3871 70 70.419 70 70.4509 70C70.4828 70 70.5147 70 70.5466 70C70.5785 70 70.6104 70 70.6423 70C70.6742 70 70.706 70 70.7379 70C70.7698 70 70.8017 70 70.8336 70C70.8655 70 70.8974 70 70.9293 70C70.9612 70 70.9931 70 71.025 70C71.0569 70 71.0888 70 71.1207 70C71.1527 70 71.1846 70 71.2165 70C71.2484 70 71.2803 70 71.3122 70C71.3441 70 71.376 70 71.4079 70C71.4398 70 71.4717 70 71.5036 70C71.5355 70 71.5674 70 71.5993 70C71.6312 70 71.6631 70 71.695 70C71.7269 70 71.7587 70 71.7906 70C71.8225 70 71.8544 70 71.8863 70C71.9182 70 71.9501 70 71.982 70C72.0138 70 72.0457 70 72.0776 70C72.1095 70 72.1414 70 72.1732 70C72.2051 70 72.237 70 72.2688 70C72.3007 70 72.3326 70 72.3644 70C72.3963 70 72.4281 70 72.46 70C72.4919 70 72.5237 70 72.5555 70C72.5874 70 72.6192 70 72.6511 70C72.6829 70 72.7147 70 72.7466 70C72.7784 70 72.8102 70 72.842 70C72.8739 70 72.9057 70 72.9375 70C72.9693 70 73.0011 70 73.0329 70C73.0647 70 73.0965 70 73.1283 70C73.16 70 73.1918 70 73.2236 70C73.2554 70 73.2871 70 73.3189 70C73.3507 70 73.3824 70 73.4142 70C73.4459 70 73.4777 70 73.5094 70C73.5411 70 73.5729 70 73.6046 70C73.6363 70 73.668 70 73.6997 70C73.7314 70 73.7631 70 73.7948 70C73.8265 70 73.8582 70 73.8899 70C73.9216 70 73.9532 70 73.9849 70C74.0166 70 74.0482 70 74.0799 70C74.1115 70 74.1431 70 74.1748 70C74.2064 70 74.238 70 74.2696 70C74.3012 70 74.3328 70 74.3644 70C74.396 70 74.4276 70 74.4592 70C74.4907 70 74.5223 70 74.5538 70C74.5854 70 74.6169 70 74.6485 70C74.68 70 74.7115 70 74.743 70C74.7745 70 74.806 70 74.8375 70C74.869 70 74.9005 70 74.932 70C74.9634 70 74.9949 70 75.0263 70C75.0578 70 75.0892 70 75.1206 70C75.1521 70 75.1835 70 75.2149 70C75.2463 70 75.2777 70 75.309 70C75.3404 70 75.3718 70 75.4031 70C75.4345 70 75.4658 70 75.4971 70C75.5285 70 75.5598 70 75.5911 70C75.6224 70 75.6537 70 75.6849 70C75.7162 70 75.7475 70 75.7787 70C75.81 70 75.8412 70 75.8724 70C75.9036 70 75.9348 70 75.966 70C75.9972 70 76.0284 70 76.0596 70C76.0907 70 76.1219 70 76.153 70C76.1841 70 76.2153 70 76.2464 70C76.2775 70 76.3086 70 76.3396 70C76.3707 70 76.4018 70 76.4328 70C76.4638 70 76.4949 70 76.5259 70C76.5569 70 76.5879 70 76.6189 70C76.6498 70 76.6808 70 76.7118 70C76.7427 70 76.7736 70 76.8045 70C76.8355 70 76.8664 70 76.8972 70C76.9281 70 76.959 70 76.9898 70C77.0207 70 77.0515 70 77.0823 70C77.1131 70 77.1439 70 77.1747 70C77.2055 70 77.2362 70 77.267 70C77.2977 70 77.3284 70 77.3591 70C77.3898 70 77.4205 70 77.4512 70C77.4819 70 77.5125 70 77.5431 70C77.5738 70 77.6044 70 77.635 70C77.6656 70 77.6961 70 77.7267 70C77.7572 70 77.7878 70 77.8183 70C77.8488 70 77.8793 70 77.9098 70C77.9402 70 77.9707 70 78.0011 70C78.0315 70 78.062 70 78.0923 70C78.1227 70 78.1531 70 78.1835 70C78.2138 70 78.2441 70 78.2745 70C78.3048 70 78.335 70 78.3653 70C78.3956 70 78.4258 70 78.456 70C78.4863 70 78.5165 70 78.5466 70C78.5768 70 78.607 70 78.6371 70C78.6673 70 78.6974 70 78.7275 70C78.7575 70 78.7876 70 78.8177 70C78.8477 70 78.8777 70 78.9077 70C78.9377 70 78.9677 70 78.9976 70C79.0276 70 79.0575 70 79.0874 70C79.1173 70 79.1472 70 79.1771 70C79.2069 70 79.2368 70 79.2666 70C79.2964 70 79.3262 70 79.3559 70C79.3857 70 79.4154 70 79.4451 70C79.4748 70 79.5045 70 79.5342 70C79.5638 70 79.5935 70 79.6231 70C79.6527 70 79.6823 70 79.7118 70C79.7414 70 79.7709 70 79.8004 70C79.83 70 79.8594 70 79.8889 70C79.9183 70 79.9478 70 79.9772 70C80.0066 70 80.036 70 80.0653 70C80.0947 70 80.124 70 80.1533 70C80.1826 70 80.2118 70 80.2411 70C80.2703 70 80.2995 70 80.3287 70C80.3579 70 80.3871 70 80.4162 70C80.4453 70 80.4744 70 80.5035 70C80.5326 70 80.5616 70 80.5906 70C80.6197 70 80.6487 70 80.6776 70C80.7066 70 80.7355 70 80.7644 70C80.7933 70 80.8222 70 80.851 70C80.8799 70 80.9087 70 80.9375 70C80.9663 70 80.995 70 81.0237 70C81.0525 70 81.0812 70 81.1098 70C81.1385 70 81.1671 70 81.1957 70C81.2243 70 81.2529 70 81.2815 70C81.31 70 81.3385 70 81.367 70C81.3955 70 81.4239 70 81.4524 70C81.4808 70 81.5092 70 81.5375 70C81.5659 70 81.5942 70 81.6225 70C81.6508 70 81.6791 70 81.7073 70C81.7355 70 81.7637 70 81.7919 70C81.8201 70 81.8482 70 81.8763 70C81.9044 70 81.9325 70 81.9605 70C81.9885 70 82.0165 70 82.0445 70C82.0725 70 82.1004 70 82.1283 70C82.1562 70 82.1841 70 82.2119 70C82.2398 70 82.2676 70 82.2953 70C82.3231 70 82.3508 70 82.3785 70C82.4062 70 82.4339 70 82.4615 70C82.4891 70 82.5167 70 82.5443 70C82.5719 70 82.5994 70 82.6269 70C82.6544 70 82.6818 70 82.7092 70C82.7367 70 82.764 70 82.7914 70C82.8187 70 82.846 70 82.8733 70C82.9006 70 82.9278 70 82.955 70C82.9822 70 83.0094 70 83.0365 70C83.0637 70 83.0908 70 83.1178 70C83.1449 70 83.1719 70 83.1989 70C83.2259 70 83.2528 70 83.2797 70C83.3066 70 83.3335 70 83.3603 70C83.3872 70 83.414 70 83.4407 70C83.4675 70 83.4942 70 83.5209 70C83.5476 70 83.5742 70 83.6008 70C83.6274 70 83.654 70 83.6805 70C83.707 70 83.7335 70 83.76 70C83.7864 70 83.8128 70 83.8392 70C83.8656 70 83.8919 70 83.9182 70C83.9445 70 83.9707 70 83.9969 70C84.0232 70 84.0493 70 84.0755 70C84.1016 70 84.1277 70 84.1537 70C84.1798 70 84.2058 70 84.2318 70C84.2577 70 84.2837 70 84.3095 70C84.3354 70 84.3613 70 84.3871 70C84.4129 70 84.4387 70 84.4644 70C84.4901 70 84.5158 70 84.5414 70C84.5671 70 84.5927 70 84.6182 70C84.6438 70 84.6693 70 84.6947 70C84.7202 70 84.7456 70 84.771 70C84.7964 70 84.8217 70 84.847 70C84.8723 70 84.8976 70 84.9228 70C84.948 70 84.9732 70 84.9983 70C85.0234 70 85.0485 70 85.0736 70C85.0986 70 85.1236 70 85.1485 70C85.1735 70 85.1984 70 85.2232 70C85.2481 70 85.2729 70 85.2977 70C85.3225 70 85.3472 70 85.3719 70C85.3966 70 85.4212 70 85.4458 70C85.4704 70 85.4949 70 85.5194 70C85.5439 70 85.5684 70 85.5928 70C85.6172 70 85.6416 70 85.6659 70C85.6902 70 85.7145 70 85.7387 70C85.7629 70 85.7871 70 85.8112 70C85.8353 70 85.8594 70 85.8835 70C85.9075 70 85.9315 70 85.9554 70C85.9794 70 86.0033 70 86.0271 70C86.051 70 86.0748 70 86.0985 70C86.1223 70 86.146 70 86.1696 70C86.1933 70 86.2169 70 86.2405 70C86.264 70 86.2875 70 86.311 70C86.3345 70 86.3579 70 86.3812 70C86.4046 70 86.4279 70 86.4512 70C86.4744 70 86.4977 70 86.5208 70C86.544 70 86.5671 70 86.5902 70C86.6133 70 86.6363 70 86.6592 70C86.6822 70 86.7051 70 86.728 70C86.7509 70 86.7737 70 86.7965 70C86.8192 70 86.8419 70 86.8646 70C86.8873 70 86.9099 70 86.9325 70C86.955 70 86.9775 70 87 70V58C86.9775 58 86.955 58 86.9325 58C86.9099 58 86.8873 58 86.8646 58C86.8419 58 86.8192 58 86.7965 58C86.7737 58 86.7509 58 86.728 58C86.7051 58 86.6822 58 86.6592 58C86.6363 58 86.6133 58 86.5902 58C86.5671 58 86.544 58 86.5208 58C86.4977 58 86.4744 58 86.4512 58C86.4279 58 86.4046 58 86.3812 58C86.3579 58 86.3345 58 86.311 58C86.2875 58 86.264 58 86.2405 58C86.2169 58 86.1933 58 86.1696 58C86.146 58 86.1223 58 86.0985 58C86.0748 58 86.051 58 86.0271 58C86.0033 58 85.9794 58 85.9554 58C85.9315 58 85.9075 58 85.8835 58C85.8594 58 85.8353 58 85.8112 58C85.7871 58 85.7629 58 85.7387 58C85.7145 58 85.6902 58 85.6659 58C85.6416 58 85.6172 58 85.5928 58C85.5684 58 85.5439 58 85.5194 58C85.4949 58 85.4704 58 85.4458 58C85.4212 58 85.3966 58 85.3719 58C85.3472 58 85.3225 58 85.2977 58C85.2729 58 85.2481 58 85.2232 58C85.1984 58 85.1735 58 85.1485 58C85.1236 58 85.0986 58 85.0736 58C85.0485 58 85.0234 58 84.9983 58C84.9732 58 84.948 58 84.9228 58C84.8976 58 84.8723 58 84.847 58C84.8217 58 84.7964 58 84.771 58C84.7456 58 84.7202 58 84.6947 58C84.6693 58 84.6438 58 84.6182 58C84.5927 58 84.5671 58 84.5414 58C84.5158 58 84.4901 58 84.4644 58C84.4387 58 84.4129 58 84.3871 58C84.3613 58 84.3354 58 84.3095 58C84.2837 58 84.2577 58 84.2318 58C84.2058 58 84.1798 58 84.1537 58C84.1277 58 84.1016 58 84.0755 58C84.0493 58 84.0232 58 83.9969 58C83.9707 58 83.9445 58 83.9182 58C83.8919 58 83.8656 58 83.8392 58C83.8128 58 83.7864 58 83.76 58C83.7335 58 83.707 58 83.6805 58C83.654 58 83.6274 58 83.6008 58C83.5742 58 83.5476 58 83.5209 58C83.4942 58 83.4675 58 83.4407 58C83.414 58 83.3872 58 83.3603 58C83.3335 58 83.3066 58 83.2797 58C83.2528 58 83.2259 58 83.1989 58C83.1719 58 83.1449 58 83.1178 58C83.0908 58 83.0637 58 83.0365 58C83.0094 58 82.9822 58 82.955 58C82.9278 58 82.9006 58 82.8733 58C82.846 58 82.8187 58 82.7914 58C82.764 58 82.7367 58 82.7092 58C82.6818 58 82.6544 58 82.6269 58C82.5994 58 82.5719 58 82.5443 58C82.5167 58 82.4891 58 82.4615 58C82.4339 58 82.4062 58 82.3785 58C82.3508 58 82.3231 58 82.2953 58C82.2676 58 82.2398 58 82.2119 58C82.1841 58 82.1562 58 82.1283 58C82.1004 58 82.0725 58 82.0445 58C82.0165 58 81.9885 58 81.9605 58C81.9325 58 81.9044 58 81.8763 58C81.8482 58 81.8201 58 81.7919 58C81.7637 58 81.7355 58 81.7073 58C81.6791 58 81.6508 58 81.6225 58C81.5942 58 81.5659 58 81.5375 58C81.5092 58 81.4808 58 81.4524 58C81.4239 58 81.3955 58 81.367 58C81.3385 58 81.31 58 81.2815 58C81.2529 58 81.2243 58 81.1957 58C81.1671 58 81.1385 58 81.1098 58C81.0812 58 81.0525 58 81.0237 58C80.995 58 80.9663 58 80.9375 58C80.9087 58 80.8799 58 80.851 58C80.8222 58 80.7933 58 80.7644 58C80.7355 58 80.7066 58 80.6776 58C80.6487 58 80.6197 58 80.5906 58C80.5616 58 80.5326 58 80.5035 58C80.4744 58 80.4453 58 80.4162 58C80.3871 58 80.3579 58 80.3287 58C80.2995 58 80.2703 58 80.2411 58C80.2118 58 80.1826 58 80.1533 58C80.124 58 80.0947 58 80.0653 58C80.036 58 80.0066 58 79.9772 58C79.9478 58 79.9183 58 79.8889 58C79.8594 58 79.83 58 79.8004 58C79.7709 58 79.7414 58 79.7118 58C79.6823 58 79.6527 58 79.6231 58C79.5935 58 79.5638 58 79.5342 58C79.5045 58 79.4748 58 79.4451 58C79.4154 58 79.3857 58 79.3559 58C79.3262 58 79.2964 58 79.2666 58C79.2368 58 79.2069 58 79.1771 58C79.1472 58 79.1173 58 79.0874 58C79.0575 58 79.0276 58 78.9976 58C78.9677 58 78.9377 58 78.9077 58C78.8777 58 78.8477 58 78.8177 58C78.7876 58 78.7575 58 78.7275 58C78.6974 58 78.6673 58 78.6371 58C78.607 58 78.5768 58 78.5466 58C78.5165 58 78.4863 58 78.456 58C78.4258 58 78.3956 58 78.3653 58C78.335 58 78.3048 58 78.2745 58C78.2441 58 78.2138 58 78.1835 58C78.1531 58 78.1227 58 78.0923 58C78.062 58 78.0315 58 78.0011 58C77.9707 58 77.9402 58 77.9098 58C77.8793 58 77.8488 58 77.8183 58C77.7878 58 77.7572 58 77.7267 58C77.6961 58 77.6656 58 77.635 58C77.6044 58 77.5738 58 77.5431 58C77.5125 58 77.4819 58 77.4512 58C77.4205 58 77.3898 58 77.3591 58C77.3284 58 77.2977 58 77.267 58C77.2362 58 77.2055 58 77.1747 58C77.1439 58 77.1131 58 77.0823 58C77.0515 58 77.0207 58 76.9898 58C76.959 58 76.9281 58 76.8972 58C76.8664 58 76.8355 58 76.8045 58C76.7736 58 76.7427 58 76.7118 58C76.6808 58 76.6498 58 76.6189 58C76.5879 58 76.5569 58 76.5259 58C76.4949 58 76.4638 58 76.4328 58C76.4018 58 76.3707 58 76.3396 58C76.3086 58 76.2775 58 76.2464 58C76.2153 58 76.1841 58 76.153 58C76.1219 58 76.0907 58 76.0596 58C76.0284 58 75.9972 58 75.966 58C75.9348 58 75.9036 58 75.8724 58C75.8412 58 75.81 58 75.7787 58C75.7475 58 75.7162 58 75.6849 58C75.6537 58 75.6224 58 75.5911 58C75.5598 58 75.5285 58 75.4971 58C75.4658 58 75.4345 58 75.4031 58C75.3718 58 75.3404 58 75.309 58C75.2777 58 75.2463 58 75.2149 58C75.1835 58 75.1521 58 75.1206 58C75.0892 58 75.0578 58 75.0263 58C74.9949 58 74.9634 58 74.932 58C74.9005 58 74.869 58 74.8375 58C74.806 58 74.7745 58 74.743 58C74.7115 58 74.68 58 74.6485 58C74.6169 58 74.5854 58 74.5538 58C74.5223 58 74.4907 58 74.4592 58C74.4276 58 74.396 58 74.3644 58C74.3328 58 74.3012 58 74.2696 58C74.238 58 74.2064 58 74.1748 58C74.1431 58 74.1115 58 74.0799 58C74.0482 58 74.0166 58 73.9849 58C73.9532 58 73.9216 58 73.8899 58C73.8582 58 73.8265 58 73.7948 58C73.7631 58 73.7314 58 73.6997 58C73.668 58 73.6363 58 73.6046 58C73.5729 58 73.5411 58 73.5094 58C73.4777 58 73.4459 58 73.4142 58C73.3824 58 73.3507 58 73.3189 58C73.2871 58 73.2554 58 73.2236 58C73.1918 58 73.16 58 73.1283 58C73.0965 58 73.0647 58 73.0329 58C73.0011 58 72.9693 58 72.9375 58C72.9057 58 72.8739 58 72.842 58C72.8102 58 72.7784 58 72.7466 58C72.7147 58 72.6829 58 72.6511 58C72.6192 58 72.5874 58 72.5555 58C72.5237 58 72.4919 58 72.46 58C72.4281 58 72.3963 58 72.3644 58C72.3326 58 72.3007 58 72.2688 58C72.237 58 72.2051 58 72.1732 58C72.1414 58 72.1095 58 72.0776 58C72.0457 58 72.0138 58 71.982 58C71.9501 58 71.9182 58 71.8863 58C71.8544 58 71.8225 58 71.7906 58C71.7587 58 71.7269 58 71.695 58C71.6631 58 71.6312 58 71.5993 58C71.5674 58 71.5355 58 71.5036 58C71.4717 58 71.4398 58 71.4079 58C71.376 58 71.3441 58 71.3122 58C71.2803 58 71.2484 58 71.2165 58C71.1846 58 71.1527 58 71.1207 58C71.0888 58 71.0569 58 71.025 58C70.9931 58 70.9612 58 70.9293 58C70.8974 58 70.8655 58 70.8336 58C70.8017 58 70.7698 58 70.7379 58C70.706 58 70.6742 58 70.6423 58C70.6104 58 70.5785 58 70.5466 58C70.5147 58 70.4828 58 70.4509 58C70.419 58 70.3871 58 70.3553 58C70.3234 58 70.2915 58 70.2596 58C70.2278 58 70.1959 58 70.164 58C70.1321 58 70.1003 58 70.0684 58C70.0365 58 70.0047 58 69.9728 58C69.941 58 69.9091 58 69.8773 58C69.8454 58 69.8136 58 69.7817 58C69.7499 58 69.718 58 69.6862 58C69.6544 58 69.6225 58 69.5907 58C69.5589 58 69.5271 58 69.4953 58C69.4634 58 69.4316 58 69.3998 58C69.368 58 69.3362 58 69.3044 58C69.2726 58 69.2408 58 69.2091 58C69.1773 58 69.1455 58 69.1137 58C69.082 58 69.0502 58 69.0184 58C68.9867 58 68.9549 58 68.9232 58C68.8914 58 68.8597 58 68.828 58C68.7962 58 68.7645 58 68.7328 58C68.7011 58 68.6694 58 68.6377 58C68.606 58 68.5743 58 68.5426 58C68.5109 58 68.4792 58 68.4475 58C68.4159 58 68.3842 58 68.3525 58C68.3209 58 68.2892 58 68.2576 58C68.226 58 68.1943 58 68.1627 58C68.1311 58 68.0995 58 68.0679 58C68.0363 58 68.0047 58 67.9731 58C67.9415 58 67.9099 58 67.8784 58C67.8468 58 67.8152 58 67.7837 58C67.7521 58 67.7206 58 67.6891 58C67.6576 58 67.626 58 67.5945 58C67.563 58 67.5315 58 67.5001 58C67.4686 58 67.4371 58 67.4056 58C67.3742 58 67.3427 58 67.3113 58C67.2799 58 67.2484 58 67.217 58C67.1856 58 67.1542 58 67.1228 58C67.0914 58 67.06 58 67.0287 58C66.9973 58 66.9659 58 66.9346 58C66.9033 58 66.8719 58 66.8406 58C66.8093 58 66.778 58 66.7467 58C66.7154 58 66.6841 58 66.6529 58C66.6216 58 66.5903 58 66.5591 58C66.5279 58 66.4966 58 66.4654 58C66.4342 58 66.403 58 66.3719 58C66.3407 58 66.3095 58 66.2783 58C66.2472 58 66.2161 58 66.1849 58C66.1538 58 66.1227 58 66.0916 58C66.0605 58 66.0294 58 65.9984 58C65.9673 58 65.9363 58 65.9052 58C65.8742 58 65.8432 58 65.8122 58C65.7812 58 65.7502 58 65.7192 58C65.6882 58 65.6573 58 65.6264 58C65.5954 58 65.5645 58 65.5336 58C65.5027 58 65.4718 58 65.4409 58C65.4101 58 65.3792 58 65.3484 58C65.3176 58 65.2867 58 65.2559 58C65.2251 58 65.1944 58 65.1636 58C65.1328 58 65.1021 58 65.0713 58C65.0406 58 65.0099 58 64.9792 58C64.9485 58 64.9179 58 64.8872 58C64.8565 58 64.8259 58 64.7953 58C64.7647 58 64.7341 58 64.7035 58C64.6729 58 64.6424 58 64.6118 58C64.5813 58 64.5508 58 64.5203 58C64.4898 58 64.4593 58 64.4288 58C64.3984 58 64.3679 58 64.3375 58C64.3071 58 64.2767 58 64.2463 58C64.2159 58 64.1856 58 64.1552 58C64.1249 58 64.0946 58 64.0643 58C64.034 58 64.0037 58 63.9735 58C63.9432 58 63.913 58 63.8828 58C63.8526 58 63.8224 58 63.7922 58C63.762 58 63.7319 58 63.7018 58C63.6717 58 63.6416 58 63.6115 58C63.5814 58 63.5514 58 63.5213 58C63.4913 58 63.4613 58 63.4313 58C63.4013 58 63.3714 58 63.3414 58C63.3115 58 63.2816 58 63.2517 58C63.2218 58 63.1919 58 63.1621 58C63.1322 58 63.1024 58 63.0726 58C63.0428 58 63.0131 58 62.9833 58C62.9536 58 62.9239 58 62.8942 58C62.8645 58 62.8348 58 62.8052 58C62.7755 58 62.7459 58 62.7163 58C62.6867 58 62.6571 58 62.6276 58C62.598 58 62.5685 58 62.539 58C62.5095 58 62.4801 58 62.4506 58C62.4212 58 62.3918 58 62.3624 58C62.333 58 62.3037 58 62.2743 58C62.245 58 62.2157 58 62.1864 58C62.1571 58 62.1279 58 62.0987 58C62.0694 58 62.0402 58 62.0111 58C61.9819 58 61.9528 58 61.9236 58C61.8945 58 61.8654 58 61.8364 58C61.8073 58 61.7783 58 61.7493 58C61.7203 58 61.6913 58 61.6624 58C61.6334 58 61.6045 58 61.5756 58C61.5468 58 61.5179 58 61.4891 58C61.4603 58 61.4315 58 61.4027 58C61.3739 58 61.3452 58 61.3165 58C61.2878 58 61.2591 58 61.2304 58C61.2018 58 61.1732 58 61.1446 58C61.116 58 61.0875 58 61.0589 58C61.0304 58 61.0019 58 60.9734 58C60.945 58 60.9166 58 60.8882 58C60.8598 58 60.8314 58 60.803 58C60.7747 58 60.7464 58 60.7181 58C60.6899 58 60.6616 58 60.6334 58C60.6052 58 60.577 58 60.5489 58C60.5207 58 60.4926 58 60.4645 58C60.4364 58 60.4084 58 60.3804 58C60.3524 58 60.3244 58 60.2964 58C60.2685 58 60.2406 58 60.2127 58C60.1848 58 60.157 58 60.1292 58C60.1013 58 60.0736 58 60.0458 58C60.0181 58 59.9904 58 59.9627 58C59.935 58 59.9074 58 59.8798 58C59.8521 58 59.8246 58 59.797 58C59.7695 58 59.742 58 59.7145 58C59.6871 58 59.6596 58 59.6322 58C59.6048 58 59.5775 58 59.5501 58C59.5228 58 59.4955 58 59.4683 58C59.441 58 59.4138 58 59.3866 58C59.3594 58 59.3323 58 59.3052 58C59.2781 58 59.251 58 59.224 58C59.197 58 59.17 58 59.143 58C59.116 58 59.0891 58 59.0622 58C59.0353 58 59.0085 58 58.9817 58C58.9549 58 58.9281 58 58.9014 58C58.8746 58 58.8479 58 58.8213 58C58.7946 58 58.768 58 58.7414 58C58.7148 58 58.6883 58 58.6618 58C58.6353 58 58.6088 58 58.5824 58C58.556 58 58.5296 58 58.5033 58C58.4769 58 58.4506 58 58.4243 58C58.3981 58 58.3719 58 58.3457 58C58.3195 58 58.2933 58 58.2672 58C58.2411 58 58.2151 58 58.189 58C58.163 58 58.137 58 58.1111 58C58.0851 58 58.0592 58 58.0334 58C58.0075 58 57.9817 58 57.9559 58C57.9301 58 57.9044 58 57.8787 58C57.853 58 57.8273 58 57.8017 58C57.7761 58 57.7506 58 57.725 58C57.6995 58 57.674 58 57.6486 58C57.6231 58 57.5977 58 57.5724 58C57.547 58 57.5217 58 57.4964 58C57.4712 58 57.4459 58 57.4208 58C57.3956 58 57.3704 58 57.3453 58C57.3202 58 57.2952 58 57.2702 58C57.2452 58 57.2202 58 57.1953 58C57.1704 58 57.1455 58 57.1206 58C57.0958 58 57.071 58 57.0463 58C57.0215 58 56.9968 58 56.9722 58C56.9475 58 56.9229 58 56.8984 58C56.8738 58 56.8493 58 56.8248 58C56.8003 58 56.7759 58 56.7515 58C56.7272 58 56.7028 58 56.6785 58C56.6543 58 56.63 58 56.6058 58C56.5816 58 56.5575 58 56.5334 58C56.5093 58 56.4852 58 56.4612 58C56.4372 58 56.4132 58 56.3893 58C56.3654 58 56.3416 58 56.3177 58C56.2939 58 56.2701 58 56.2464 58C56.2227 58 56.199 58 56.1754 58C56.1518 58 56.1282 58 56.1047 58C56.0811 58 56.0577 58 56.0342 58C56.0108 58 55.9874 58 55.9641 58C55.9407 58 55.9175 58 55.8942 58C55.871 58 55.8478 58 55.8247 58C55.8015 58 55.7784 58 55.7554 58C55.7324 58 55.7094 58 55.6864 58C55.6635 58 55.6406 58 55.6178 58C55.5949 58 55.5722 58 55.5494 58C55.5267 58 55.504 58 55.4814 58C55.4587 58 55.4361 58 55.4136 58C55.3911 58 55.3686 58 55.3462 58C55.3237 58 55.3014 58 55.279 58C55.2567 58 55.2344 58 55.2122 58C55.19 58 55.1678 58 55.1457 58C55.1236 58 55.1015 58 55.0795 58C55.0575 58 55.0356 58 55.0137 58C54.9918 58 54.9699 58 54.9481 58C54.9263 58 54.9046 58 54.8829 58C54.8612 58 54.8395 58 54.8179 58C54.7964 58 54.7748 58 54.7534 58C54.7319 58 54.7105 58 54.6891 58C54.6677 58 54.6464 58 54.6251 58C54.6039 58 54.5827 58 54.5615 58C54.5404 58 54.5193 58 54.4982 58C54.4772 58 54.4562 58 54.4353 58C54.4144 58 54.3935 58 54.3727 58C54.3519 58 54.3311 58 54.3104 58C54.2897 58 54.269 58 54.2484 58C54.2278 58 54.2073 58 54.1868 58C54.1663 58 54.1459 58 54.1256 58C54.1052 58 54.0849 58 54.0646 58C54.0444 58 54.0242 58 54.004 58C53.9839 58 53.9638 58 53.9438 58C53.9238 58 53.9038 58 53.8839 58C53.864 58 53.8441 58 53.8244 58C53.8046 58 53.7848 58 53.7652 58C53.7455 58 53.7259 58 53.7063 58C53.6868 58 53.6673 58 53.6478 58C53.6284 58 53.609 58 53.5897 58C53.5704 58 53.5511 58 53.5319 58C53.5127 58 53.4936 58 53.4745 58C53.4554 58 53.4364 58 53.4174 58C53.3985 58 53.3796 58 53.3607 58C53.3419 58 53.3231 58 53.3044 58C53.2857 58 53.267 58 53.2484 58C53.2298 58 53.2113 58 53.1928 58C53.1743 58 53.1559 58 53.1376 58C53.1192 58 53.1009 58 53.0827 58C53.0645 58 53.0463 58 53.0282 58C53.0101 58 52.9921 58 52.9741 58C52.9561 58 52.9382 58 52.9204 58C52.9025 58 52.8847 58 52.867 58C52.8493 58 52.8316 58 52.814 58C52.7964 58 52.7789 58 52.7614 58C52.7439 58 52.7265 58 52.7092 58C52.6918 58 52.6745 58 52.6573 58C52.6401 58 52.623 58 52.6059 58C52.5888 58 52.5718 58 52.5548 58C52.5378 58 52.521 58 52.5041 58C52.4873 58 52.4705 58 52.4538 58C52.4371 58 52.4205 58 52.4039 58C52.3874 58 52.3709 58 52.3544 58C52.338 58 52.3216 58 52.3053 58C52.289 58 52.2728 58 52.2566 58C52.2404 58 52.2243 58 52.2083 58C52.1923 58 52.1763 58 52.1604 58C52.1445 58 52.1286 58 52.1129 58C52.0971 58 52.0814 58 52.0658 58C52.0501 58 52.0346 58 52.0191 58C52.0036 58 51.9881 58 51.9728 58C51.9574 58 51.9421 58 51.9269 58C51.9117 58 51.8965 58 51.8814 58C51.8663 58 51.8513 58 51.8363 58C51.8214 58 51.8065 58 51.7917 58C51.7769 58 51.7621 58 51.7475 58C51.7328 58 51.7182 58 51.7036 58C51.6891 58 51.6746 58 51.6602 58C51.6459 58 51.6315 58 51.6173 58C51.603 58 51.5888 58 51.5747 58C51.5606 58 51.5466 58 51.5326 58C51.5186 58 51.5047 58 51.4909 58C51.4771 58 51.4633 58 51.4496 58C51.4359 58 51.4223 58 51.4088 58C51.3952 58 51.3818 58 51.3684 58C51.355 58 51.3416 58 51.3284 58C51.3151 58 51.3019 58 51.2888 58C51.2757 58 51.2627 58 51.2497 58C51.2367 58 51.2239 58 51.211 58C51.1982 58 51.1855 58 51.1728 58C51.1601 58 51.1475 58 51.135 58C51.1225 58 51.11 58 51.0976 58C51.0853 58 51.073 58 51.0607 58C51.0485 58 51.0364 58 51.0243 58C51.0122 58 51.0002 58 50.9883 58C50.9763 58 50.9645 58 50.9527 58C50.9409 58 50.9292 58 50.9176 58C50.906 58 50.8944 58 50.8829 58C50.8714 58 50.86 58 50.8487 58C50.8374 58 50.8261 58 50.815 58C50.8038 58 50.7927 58 50.7817 58C50.7707 58 50.7597 58 50.7488 58C50.738 58 50.7272 58 50.7165 58C50.7058 58 50.6951 58 50.6846 58C50.674 58 50.6635 58 50.6531 58C50.6427 58 50.6324 58 50.6221 58C50.6119 58 50.6017 58 50.5916 58C50.5815 58 50.5715 58 50.5616 58C50.5517 58 50.5418 58 50.532 58C50.5222 58 50.5125 58 50.5029 58C50.4933 58 50.4838 58 50.4743 58C50.4648 58 50.4555 58 50.4462 58C50.4369 58 50.4276 58 50.4185 58C50.4093 58 50.4003 58 50.3913 58C50.3823 58 50.3734 58 50.3646 58C50.3558 58 50.347 58 50.3384 58C50.3297 58 50.3211 58 50.3126 58C50.3041 58 50.2957 58 50.2874 58C50.2791 58 50.2708 58 50.2626 58C50.2545 58 50.2464 58 50.2384 58C50.2303 58 50.2224 58 50.2146 58C50.2067 58 50.199 58 50.1913 58C50.1836 58 50.176 58 50.1685 58C50.161 58 50.1535 58 50.1462 58C50.1388 58 50.1316 58 50.1244 58C50.1172 58 50.1101 58 50.1031 58C50.0961 58 50.0891 58 50.0823 58C50.0754 58 50.0687 58 50.062 58C50.0553 58 50.0487 58 50.0422 58C50.0357 58 50.0293 58 50.0229 58C50.0166 58 50.0103 58 50.0042 58C49.998 58 49.9919 58 49.9859 58C49.9799 58 49.974 58 49.9681 58C49.9623 58 49.9566 58 49.9509 58C49.9452 58 49.9397 58 49.9342 58C49.9287 58 49.9233 58 49.918 58C49.9127 58 49.9074 58 49.9023 58C49.8971 58 49.8921 58 49.8871 58C49.8821 58 49.8773 58 49.8725 58C49.8677 58 49.863 58 49.8583 58C49.8537 58 49.8492 58 49.8447 58C49.8403 58 49.8359 58 49.8317 58C49.8274 58 49.8232 58 49.8191 58C49.815 58 49.811 58 49.8071 58C49.8032 58 49.7994 58 49.7956 58C49.7919 58 49.7883 58 49.7847 58C49.7811 58 49.7777 58 49.7743 58C49.7709 58 49.7676 58 49.7644 58C49.7612 58 49.7581 58 49.7551 58C49.7521 58 49.7491 58 49.7463 58C49.7434 58 49.7407 58 49.738 58C49.7354 58 49.7328 58 49.7303 58C49.7278 58 49.7255 58 49.7232 58C49.7209 58 49.7187 58 49.7165 58C49.7144 58 49.7124 58 49.7105 58C49.7085 58 49.7067 58 49.705 58C49.7032 58 49.7016 58 49.7 58V70Z" fill="white"/>
<path d="M117 64L121.243 68.2426C123.586 65.8995 123.586 62.1005 121.243 59.7574L117 64ZM93.7574 78.7574C91.4142 81.1005 91.4142 84.8995 93.7574 87.2426C96.1005 89.5858 99.8995 89.5858 102.243 87.2426L93.7574 78.7574ZM102.243 40.7574C99.8995 38.4142 96.1005 38.4142 93.7574 40.7574C91.4142 43.1005 91.4142 46.8995 93.7574 49.2426L102.243 40.7574ZM87 70H117V58H87V70ZM112.757 59.7574L93.7574 78.7574L102.243 87.2426L121.243 68.2426L112.757 59.7574ZM121.243 59.7574L102.243 40.7574L93.7574 49.2426L112.757 68.2426L121.243 59.7574Z" fill="#DADADF"/>
</svg>
