<svg width="128" height="128" viewBox="0 0 128 128" fill="none" xmlns="http://www.w3.org/2000/svg">
<path fill-rule="evenodd" clip-rule="evenodd" d="M34.4057 39.2199C33.5941 39.0005 32.7097 39.2338 32.1986 39.9013C30.153 42.5731 28.4326 45.507 27.0966 48.6441C26.7631 49.4271 27.0059 50.3224 27.6117 50.9201C30.9956 54.2592 33.0909 58.8864 33.0909 64C33.0909 69.2465 30.8852 73.9811 27.3452 77.3377C26.7278 77.923 26.4672 78.813 26.7846 79.6023C28.0245 82.6856 29.6327 85.5811 31.5549 88.2344C32.0738 88.9507 33.0129 89.1933 33.8594 88.9367C38.6032 87.499 43.9116 87.9446 48.5455 90.6034C53.3575 93.3646 56.4534 97.9453 57.4614 102.966C57.6368 103.84 58.3017 104.558 59.1856 104.671C60.8848 104.888 62.6168 105 64.375 105C65.8555 105 67.3173 104.921 68.7566 104.766C69.6615 104.668 70.3478 103.937 70.5231 103.044C71.5146 97.9927 74.6176 93.3788 79.4545 90.6034C84.2668 87.8422 89.8066 87.468 94.6859 89.1111C95.5421 89.3994 96.5094 89.17 97.044 88.4418C98.9234 85.8816 100.509 83.0925 101.751 80.1239C102.095 79.3039 101.808 78.3714 101.141 77.783C97.318 74.4067 94.9091 69.483 94.9091 64C94.9091 58.652 97.2009 53.836 100.862 50.4692C101.516 49.8672 101.784 48.9287 101.424 48.1157C100.09 45.104 98.3999 42.2854 96.4067 39.7134C95.8801 39.0338 94.968 38.8123 94.1453 39.0619C89.4003 40.5013 84.0899 40.0563 79.4546 37.3966C74.9115 34.7897 71.898 30.561 70.7271 25.8711C70.5173 25.0309 69.8519 24.3579 68.9914 24.2602C67.4764 24.0883 65.936 24 64.375 24C62.5335 24 60.7207 24.1229 58.9444 24.361C58.1051 24.4734 57.4609 25.1334 57.252 25.9541C56.0664 30.6108 53.0618 34.8051 48.5454 37.3965C44.0887 39.9538 39.0079 40.4637 34.4057 39.2199ZM63.4849 78.3355C71.1666 78.3355 77.3939 72.1465 77.3939 64.512C77.3939 56.8775 71.1666 50.6884 63.4849 50.6884C55.8031 50.6884 49.5758 56.8775 49.5758 64.512C49.5758 72.1465 55.8031 78.3355 63.4849 78.3355Z" fill="#D9D9D9"/>
</svg>
