<svg width="64" height="64" viewBox="0 0 64 64" fill="none" xmlns="http://www.w3.org/2000/svg">
<path fill-rule="evenodd" clip-rule="evenodd" d="M8.33356 12.0994C7.51778 11.8962 6.63261 12.126 6.12765 12.7981C4.64816 14.7675 3.39062 16.9132 2.39217 19.198C2.05138 19.9778 2.29771 20.872 2.89124 21.4819C5.44122 24.1024 7.01028 27.6716 7.01028 31.605C7.01028 35.6434 5.35626 39.298 2.68475 41.936C2.07938 42.5338 1.81525 43.4225 2.14006 44.2088C3.06343 46.4442 4.23275 48.5521 5.61429 50.4989C6.1262 51.2202 7.06615 51.4591 7.91787 51.2204C11.5887 50.192 15.6575 50.5801 19.2213 52.625C22.9245 54.7498 25.3413 58.2386 26.2005 62.0842C26.3947 62.9539 27.0568 63.6739 27.9417 63.7783C29.1837 63.9247 30.4473 64 31.7286 64C32.7879 64 33.8351 63.9485 34.868 63.848C35.7738 63.7598 36.4572 63.0261 36.6523 62.1372C37.501 58.2706 39.9231 54.7596 43.6433 52.6249C47.3454 50.5007 51.5926 50.1644 55.3723 51.3466C56.2346 51.6163 57.2026 51.3906 57.7299 50.657C59.072 48.79 60.2179 46.7725 61.1376 44.6347C61.4889 43.8181 61.1984 42.8868 60.5448 42.2843C57.6598 39.6246 55.8543 35.8243 55.8543 31.605C55.8543 27.4923 57.5696 23.7778 60.328 21.1296C60.9695 20.5138 61.241 19.5765 60.8729 18.767C59.8819 16.588 58.6538 14.5398 57.2215 12.6551C56.7013 11.9706 55.7885 11.7527 54.9608 11.9855C51.2864 13.0188 47.2116 12.6325 43.6433 10.5849C40.1492 8.58002 37.8002 5.36085 36.8244 1.77336C36.5971 0.937686 35.9345 0.262141 35.0731 0.17268C33.9739 0.0585153 32.8581 0 31.7286 0C30.375 0 29.0411 0.0840378 27.7318 0.24718C26.8914 0.351883 26.25 1.0143 26.0244 1.83053C25.0394 5.39503 22.6968 8.59066 19.2213 10.5849C15.7915 12.5529 11.8939 12.9863 8.33356 12.0994ZM31.0252 42.9318C37.0948 42.9318 42.0151 38.0417 42.0151 32.0095C42.0151 25.9773 37.0948 21.0872 31.0252 21.0872C24.9557 21.0872 20.0353 25.9773 20.0353 32.0095C20.0353 38.0417 24.9557 42.9318 31.0252 42.9318Z" fill="#D9D9D9"/>
</svg>
